<svg width="24" height="25" viewBox="0 0 24 25" fill="none" xmlns="http://www.w3.org/2000/svg">
<g id="01 align center">
<path id="Vector" d="M23.9998 22.834L17.7378 16.5641C19.3644 14.5722 20.1642 12.0305 19.9716 9.46479C19.7791 6.89903 18.609 4.50553 16.7034 2.77935C14.7977 1.05317 12.3024 0.126385 9.73342 0.190698C7.16447 0.25501 4.71848 1.3055 2.9014 3.12487C1.08431 4.94425 0.0351378 7.39331 -0.029094 9.9655C-0.0933258 12.5377 0.832292 15.0362 2.5563 16.9442C4.28031 18.8522 6.67081 20.0238 9.23334 20.2166C11.7959 20.4094 14.3344 19.6086 16.3238 17.9799L22.5858 24.2498L23.9998 22.834ZM9.99978 18.2423C8.41753 18.2423 6.87081 17.7725 5.55522 16.8923C4.23963 16.0122 3.21425 14.7612 2.60875 13.2975C2.00324 11.8339 1.84482 10.2233 2.1535 8.6695C2.46218 7.1157 3.22411 5.68845 4.34293 4.56822C5.46175 3.44799 6.88721 2.68511 8.43906 2.37604C9.99091 2.06697 11.5994 2.22559 13.0612 2.83186C14.5231 3.43812 15.7725 4.46479 16.6515 5.78204C17.5306 7.09928 17.9998 8.64795 17.9998 10.2322C17.9974 12.3559 17.1538 14.3919 15.654 15.8935C14.1542 17.3952 12.1208 18.2399 9.99978 18.2423Z" fill="white"/>
</g>
</svg>
